<svg xmlns="http://www.w3.org/2000/svg" xmlns:xlink="http://www.w3.org/1999/xlink" version="1.0" x="0px" y="0px" viewBox="0 0 100 125" enable-background="new 0 0 100 100" xml:space="preserve"><path d="M70,63.334V40c0-9.909-7.21-18.112-16.667-19.701v-6.966h-6.666v6.966C37.21,21.888,30,30.091,30,40v23.346  c-0.01,3.676-2.988,6.65-6.667,6.65v6.67H40c0,5.521,4.479,10,10,10s10-4.479,10-10h16.667V70C72.985,70,70,67.016,70,63.334z   M50,80c-1.843,0-3.333-1.49-3.333-3.334h6.666C53.333,78.51,51.843,80,50,80z M63.333,70H36.667V40  c0-7.354,5.982-13.333,13.333-13.333c7.354,0,13.333,5.98,13.333,13.333V70z"/><path d="M23.333,40c0-7.363,2.985-14.03,7.813-18.857l-4.717-4.713C20.397,22.461,16.667,30.794,16.667,40H23.333z"/><path d="M83.333,40c0-9.206-3.73-17.539-9.766-23.574l-4.713,4.717c4.827,4.824,7.813,11.491,7.813,18.857H83.333z"/><text x="0" y="115" fill="#000000" font-size="5px" font-weight="bold" font-family="'Helvetica Neue', Helvetica, Arial-Unicode, Arial, Sans-serif">Created by Danil Polshin</text><text x="0" y="120" fill="#000000" font-size="5px" font-weight="bold" font-family="'Helvetica Neue', Helvetica, Arial-Unicode, Arial, Sans-serif">from the Noun Project</text></svg>